<svg xmlns="http://www.w3.org/2000/svg" viewBox="0 0 64 64" width="64" height="64">
  <rect width="64" height="64" rx="14" fill="#16325c"/>
  <g transform="translate(4 14) scale(0.46)" fill="#3ec6e0">
    <path d="M4 18 C16 28 16 30 22 34 C16 38 16 40 4 54 C18 48 26 42 30 36 C26 30 18 24 4 18 Z"/>
    <path d="M26 36 C40 22 60 19 78 24 C88 27 98 31 116 35 L116 37 C98 41 88 45 78 48 C60 53 40 50 26 36 Z"/>
    <path d="M40 28 C46 8 64 4 76 10 C70 20 60 27 50 31 C46 30 42 29 40 28 Z"/>
    <path d="M58 42 C60 54 68 62 76 62 C70 52 68 46 66 41 C63 41 60 41 58 42 Z"/>
    <circle cx="92" cy="34" r="3" fill="#16325c"/>
  </g>
</svg>
