<svg xmlns="http://www.w3.org/2000/svg" viewBox="0 0 64 64" width="64" height="64">
  <rect width="64" height="64" rx="14" fill="#16325c"/>
  <g transform="translate(5 17) scale(0.42)" fill="#3ec6e0">
    <path d="M22 35 C16 28 12 22 8 15 C16 21 20 27 24 33 Z"/>
    <path d="M22 37 C16 44 12 50 8 57 C16 51 20 45 24 39 Z"/>
    <path d="M22 34 C32 24 46 20 64 21 C76 22 86 25 98 29 L126 31 L126 33 L98 34 C86 38 76 41 64 42 C46 44 32 42 22 38 Z"/>
    <path d="M48 25 C54 9 66 5 82 8 C74 15 64 21 54 26 C52 26 50 26 48 25 Z"/>
    <path d="M80 34 C84 45 82 55 74 61 C76 51 74 43 72 36 C75 35 78 34 80 34 Z"/>
    <circle cx="110" cy="31" r="2.6" fill="#16325c"/>
  </g>
</svg>
